<?xml version="1.0" encoding="UTF-8" standalone="no"?>
<!DOCTYPE svg PUBLIC "-//W3C//DTD SVG 1.1//EN"
 "http://www.w3.org/Graphics/SVG/1.1/DTD/svg11.dtd">
<!-- Generated by graphviz version 2.26.3 (20100126.1600)
 -->
<!-- Title: GG Pages: 1 -->
<svg width="308pt" height="260pt"
 viewBox="0.00 0.00 308.00 260.00" xmlns="http://www.w3.org/2000/svg" xmlns:xlink="http://www.w3.org/1999/xlink">
<g id="graph1" class="graph" transform="scale(1 1) rotate(0) translate(4 256)">
<title>GG</title>
<polygon fill="white" stroke="white" points="-4,5 -4,-256 305,-256 305,5 -4,5"/>
<!-- node3 -->
<g id="node1" class="node"><title>node3</title>
<polygon fill="none" stroke="black" points="127.772,-239.562 64,-252 0.228384,-239.562 0.287907,-219.438 127.712,-219.438 127.772,-239.562"/>
<text text-anchor="middle" x="64" y="-230.7" font-family="Times Roman,serif" font-size="12.00">app13_exe</text>
</g>
<!-- node2 -->
<g id="node4" class="node"><title>node2</title>
<polygon fill="none" stroke="black" points="66,-180 6.75684,-162 66,-144 125.243,-162 66,-180"/>
<text text-anchor="middle" x="66" y="-158.7" font-family="Times Roman,serif" font-size="12.00">dir12_lib</text>
</g>
<!-- node3&#45;&gt;node2 -->
<g id="edge6" class="edge"><title>node3&#45;&gt;node2</title>
<path fill="none" stroke="black" d="M64.4047,-219.43C64.6402,-210.951 64.945,-199.98 65.225,-189.902"/>
<polygon fill="black" stroke="black" points="68.7247,-189.958 65.5038,-179.864 61.7274,-189.763 68.7247,-189.958"/>
</g>
<!-- node4 -->
<g id="node2" class="node"><title>node4</title>
<polygon fill="none" stroke="black" points="300.124,-239.562 223,-252 145.876,-239.562 145.948,-219.438 300.052,-219.438 300.124,-239.562"/>
<text text-anchor="middle" x="223" y="-230.7" font-family="Times Roman,serif" font-size="12.00">appextra_exe</text>
</g>
<!-- node5 -->
<g id="node5" class="node"><title>node5</title>
<polygon fill="none" stroke="black" points="220,-180 146.968,-162 220,-144 293.032,-162 220,-180"/>
<text text-anchor="middle" x="220" y="-158.7" font-family="Times Roman,serif" font-size="12.00">dirextra_lib</text>
</g>
<!-- node4&#45;&gt;node5 -->
<g id="edge8" class="edge"><title>node4&#45;&gt;node5</title>
<path fill="none" stroke="black" d="M222.393,-219.43C222.04,-210.951 221.583,-199.98 221.163,-189.902"/>
<polygon fill="black" stroke="black" points="224.658,-189.71 220.744,-179.864 217.664,-190.001 224.658,-189.71"/>
</g>
<!-- node1 -->
<g id="node3" class="node"><title>node1</title>
<polygon fill="none" stroke="black" points="143,-108 83.7568,-90 143,-72 202.243,-90 143,-108"/>
<text text-anchor="middle" x="143" y="-86.7" font-family="Times Roman,serif" font-size="12.00">dir11_lib</text>
</g>
<!-- node0 -->
<g id="node6" class="node"><title>node0</title>
<polygon fill="none" stroke="black" points="143,-36 81.9171,-18 143,-3.55271e-15 204.083,-18 143,-36"/>
<text text-anchor="middle" x="143" y="-14.7" font-family="Times Roman,serif" font-size="12.00">fancy_lib</text>
</g>
<!-- node1&#45;&gt;node0 -->
<g id="edge2" class="edge"><title>node1&#45;&gt;node0</title>
<path fill="none" stroke="black" d="M143,-71.8314C143,-64.131 143,-54.9743 143,-46.4166"/>
<polygon fill="black" stroke="black" points="146.5,-46.4132 143,-36.4133 139.5,-46.4133 146.5,-46.4132"/>
</g>
<!-- node2&#45;&gt;node1 -->
<g id="edge4" class="edge"><title>node2&#45;&gt;node1</title>
<path fill="none" stroke="black" d="M80.8464,-148.118C92.2102,-137.492 108.063,-122.668 120.914,-110.652"/>
<polygon fill="black" stroke="black" points="123.547,-112.982 128.46,-103.596 118.766,-107.869 123.547,-112.982"/>
</g>
<!-- node5&#45;&gt;node1 -->
<g id="edge10" class="edge"><title>node5&#45;&gt;node1</title>
<path fill="none" stroke="black" d="M204.418,-147.43C193.137,-136.881 177.727,-122.472 165.166,-110.727"/>
<polygon fill="black" stroke="black" points="167.47,-108.089 157.775,-103.816 162.689,-113.202 167.47,-108.089"/>
</g>
</g>
</svg>
