<?xml version="1.0" encoding="UTF-8" standalone="no"?>
<!DOCTYPE svg PUBLIC "-//W3C//DTD SVG 1.1//EN"
 "http://www.w3.org/Graphics/SVG/1.1/DTD/svg11.dtd">
<!-- Generated by graphviz version 2.26.3 (20100126.1600)
 -->
<!-- Title: GG Pages: 1 -->
<svg width="308pt" height="188pt"
 viewBox="0.00 0.00 308.00 188.00" xmlns="http://www.w3.org/2000/svg" xmlns:xlink="http://www.w3.org/1999/xlink">
<g id="graph1" class="graph" transform="scale(1 1) rotate(0) translate(4 184)">
<title>GG</title>
<polygon fill="white" stroke="white" points="-4,5 -4,-184 305,-184 305,5 -4,5"/>
<!-- node2 -->
<g id="node1" class="node"><title>node2</title>
<polygon fill="none" stroke="black" points="127.772,-167.562 64,-180 0.228384,-167.562 0.287907,-147.438 127.712,-147.438 127.772,-167.562"/>
<text text-anchor="middle" x="64" y="-158.7" font-family="Times Roman,serif" font-size="12.00">app13_exe</text>
</g>
<!-- node1 -->
<g id="node4" class="node"><title>node1</title>
<polygon fill="none" stroke="black" points="66,-108 6.75684,-90 66,-72 125.243,-90 66,-108"/>
<text text-anchor="middle" x="66" y="-86.7" font-family="Times Roman,serif" font-size="12.00">dir12_lib</text>
</g>
<!-- node2&#45;&gt;node1 -->
<g id="edge4" class="edge"><title>node2&#45;&gt;node1</title>
<path fill="none" stroke="black" d="M64.4047,-147.43C64.6402,-138.951 64.945,-127.98 65.225,-117.902"/>
<polygon fill="black" stroke="black" points="68.7247,-117.958 65.5038,-107.864 61.7274,-117.763 68.7247,-117.958"/>
</g>
<!-- node3 -->
<g id="node2" class="node"><title>node3</title>
<polygon fill="none" stroke="black" points="300.124,-167.562 223,-180 145.876,-167.562 145.948,-147.438 300.052,-147.438 300.124,-167.562"/>
<text text-anchor="middle" x="223" y="-158.7" font-family="Times Roman,serif" font-size="12.00">appextra_exe</text>
</g>
<!-- node4 -->
<g id="node5" class="node"><title>node4</title>
<polygon fill="none" stroke="black" points="220,-108 146.968,-90 220,-72 293.032,-90 220,-108"/>
<text text-anchor="middle" x="220" y="-86.7" font-family="Times Roman,serif" font-size="12.00">dirextra_lib</text>
</g>
<!-- node3&#45;&gt;node4 -->
<g id="edge6" class="edge"><title>node3&#45;&gt;node4</title>
<path fill="none" stroke="black" d="M222.393,-147.43C222.04,-138.951 221.583,-127.98 221.163,-117.902"/>
<polygon fill="black" stroke="black" points="224.658,-117.71 220.744,-107.864 217.664,-118.001 224.658,-117.71"/>
</g>
<!-- node0 -->
<g id="node3" class="node"><title>node0</title>
<polygon fill="none" stroke="black" points="143,-36 83.7568,-18 143,-3.55271e-15 202.243,-18 143,-36"/>
<text text-anchor="middle" x="143" y="-14.7" font-family="Times Roman,serif" font-size="12.00">dir11_lib</text>
</g>
<!-- node1&#45;&gt;node0 -->
<g id="edge2" class="edge"><title>node1&#45;&gt;node0</title>
<path fill="none" stroke="black" d="M80.8464,-76.1177C92.2102,-65.4918 108.063,-50.6685 120.914,-38.6521"/>
<polygon fill="black" stroke="black" points="123.547,-40.982 128.46,-31.5955 118.766,-35.869 123.547,-40.982"/>
</g>
<!-- node4&#45;&gt;node0 -->
<g id="edge8" class="edge"><title>node4&#45;&gt;node0</title>
<path fill="none" stroke="black" d="M204.418,-75.4297C193.137,-64.8809 177.727,-50.4723 165.166,-38.7267"/>
<polygon fill="black" stroke="black" points="167.47,-36.0892 157.775,-31.8158 162.689,-41.2022 167.47,-36.0892"/>
</g>
</g>
</svg>
